PathFileType	4	(X/Y/Z)	 s11c0102.trc
DataRate	CameraRate	NumFrames	NumMarkers	Units	OrigDataRate	OrigDataStartFrame	OrigNumFrames
200	200	4	48	mm	200	1251	2000
Frame#	Time	racr			lacr			c7			jug			rlel			rdr			llel			ldr			s2			lic			ric			lasi			rasi			rpsi			lpsi			rgt			lgt			rth1			rth2			rth3			rth4			rlfc			rmfc			rsh1			rsh2			rsh3			rsh4			rlmal			rcal			rtoe			rmt5			lth1			lth2			lth4			lth3			llfc			lmfc			llmal			lcal			lmt5			lsh1			lsh2			lsh3			lsh4			ltoe			SBIKE			LBIKE			RBIKE			
		X1	Y1	Z1	X2	Y2	Z2	X3	Y3	Z3	X4	Y4	Z4	X5	Y5	Z5	X6	Y6	Z6	X7	Y7	Z7	X8	Y8	Z8	X9	Y9	Z9	X10	Y10	Z10	X11	Y11	Z11	X12	Y12	Z12	X13	Y13	Z13	X14	Y14	Z14	X15	Y15	Z15	X16	Y16	Z16	X17	Y17	Z17	X18	Y18	Z18	X19	Y19	Z19	X20	Y20	Z20	X21	Y21	Z21	X22	Y22	Z22	X23	Y23	Z23	X24	Y24	Z24	X25	Y25	Z25	X26	Y26	Z26	X27	Y27	Z27	X28	Y28	Z28	X29	Y29	Z29	X30	Y30	Z30	X31	Y31	Z31	X32	Y32	Z32	X33	Y33	Z33	X34	Y34	Z34	X35	Y35	Z35	X36	Y36	Z36	X37	Y37	Z37	X38	Y38	Z38	X39	Y39	Z39	X40	Y40	Z40	X41	Y41	Z41	X42	Y42	Z42	X43	Y43	Z43	X44	Y44	Z44	X45	Y45	Z45	X46	Y46	Z46	X47	Y47	Z47	X48	Y48	Z48	
1251	6.2550	492.370210	1360.863085	-48.145185	540.552190	1366.801248	-331.136605	462.861509	1437.146177	-202.403034	463.645304	1246.990217	-215.363641	547.730846	1109.324284	61.486001	768.254327	938.440924	-33.130656	629.925243	1176.462149	-556.853244	788.729791	926.772191	-439.861133	-103.973401	1203.275012	-298.921341	139.169845	1206.915379	-469.297690	78.661201	1240.117029	-72.167852	167.397157	1140.837814	-433.950849	112.497961	1191.195410	-123.312654	-71.657616	1282.640140	-253.357875	-60.143000	1267.296790	-344.047744	63.780021	1135.465250	-46.387999	34.186257	1064.397481	-476.764314	201.891065	1097.047045	-34.636673	291.195964	1101.817354	-38.365880	369.666958	1062.621330	-41.809701	297.960929	1135.466215	-53.889704	474.674214	1040.425074	-49.943540	498.331558	1015.866592	-185.404216	413.840015	898.994947	-45.751636	390.487882	815.741676	-64.328484	329.085589	754.259767	-70.018081	417.907201	804.709394	-91.028648	246.995970	635.152263	-85.812671	192.070208	657.619670	-136.641841	392.337685	451.569803	-137.135629	320.646817	473.903440	-69.084687	101.221166	932.861371	-491.012794	151.981855	864.669588	-482.080724	186.515774	877.586204	-476.520036	161.482858	776.209524	-467.271380	213.658014	651.604672	-435.301969	222.452417	646.710189	-306.034078	89.234757	234.565224	-417.681862	35.755947	183.233005	-381.397819	243.810548	156.144124	-444.451927	176.698700	534.524368	-455.824331	176.043450	449.488538	-440.398049	132.883139	372.698787	-437.383977	205.300364	445.209112	-416.133702	333.895797	192.789135	-373.954716	-205.297212	955.463731	-264.581476	1.248525	82.369046	-461.232803	-15.303395	81.414148	-62.777716	
1252	6.2600	493.165972	1359.072927	-48.355546	541.066899	1363.851605	-328.909944	463.805981	1435.215450	-201.292976	463.310309	1245.092160	-213.103353	546.817911	1108.103981	60.007517	768.305129	938.239758	-33.241369	637.065294	1179.028222	-554.368248	788.740006	926.687064	-439.956721	-103.233033	1205.578770	-301.682346	139.461989	1207.037171	-469.063464	77.562033	1242.688201	-72.247285	167.206579	1140.590641	-433.927699	110.586421	1192.936789	-123.419391	-72.579667	1285.556833	-252.954078	-60.092300	1269.238870	-343.901291	61.926519	1137.277474	-46.235275	32.840800	1065.646619	-476.940081	200.342402	1098.976846	-34.805596	289.458283	1103.243129	-39.134526	367.743433	1063.702806	-43.104681	296.363119	1137.170633	-54.618074	472.154969	1042.608207	-51.050461	495.591058	1018.147800	-186.697231	414.792978	898.849518	-47.262108	393.262621	814.775635	-65.076071	333.090302	752.028958	-70.272637	420.472203	804.403948	-92.509660	252.133876	632.424055	-85.573858	195.985558	653.309953	-136.019329	403.246218	454.274569	-136.903730	330.915649	474.141208	-68.671262	99.855664	934.125632	-491.684760	151.358344	866.423044	-483.456972	185.852431	879.660159	-479.080313	161.973848	778.226699	-468.226025	215.410210	653.862571	-437.102161	226.607529	649.420031	-308.356639	81.725340	239.897905	-418.138104	27.064883	190.108517	-381.328825	234.166175	157.714715	-444.683549	176.270331	537.407200	-457.204318	173.532249	452.426399	-441.391222	128.453353	376.773681	-437.973729	202.697601	447.494918	-417.296235	325.361550	191.822499	-374.263474	-205.370502	955.440649	-264.545736	1.254875	82.397990	-461.221289	-15.271962	81.419669	-62.798816	
1253	6.2650	494.020681	1357.171140	-48.524255	541.664379	1360.810215	-326.830352	464.767460	1433.218790	-200.299147	463.054753	1243.140715	-210.916528	546.788256	1107.248591	59.120051	768.374904	937.830158	-33.259321	643.489233	1180.764902	-551.406191	788.730724	926.603666	-440.060408	-103.927963	1207.924935	-301.708295	139.536792	1207.236894	-468.976542	76.433132	1245.355724	-72.054993	166.743291	1140.395066	-433.943766	108.635387	1194.696373	-122.834461	-72.912939	1288.342657	-252.638989	-59.891875	1271.261256	-343.838414	59.910713	1138.779812	-46.071419	31.440082	1066.854456	-477.099776	198.321258	1100.361541	-35.706726	287.506672	1104.189680	-39.978910	365.730688	1064.276859	-44.406258	294.629532	1138.099954	-55.335145	469.316743	1043.243621	-52.525306	491.893382	1018.972576	-188.641394	415.637522	897.824070	-48.446255	395.731854	813.085847	-65.741693	336.908527	749.106261	-70.366976	422.666827	803.430852	-93.647014	256.891759	628.571528	-85.295159	199.163110	647.677595	-135.510312	413.926222	456.673263	-136.492261	341.030348	473.648617	-68.217035	98.789907	935.558330	-492.127128	151.243348	868.536929	-484.662366	185.683592	882.199869	-481.385885	163.401326	780.552336	-469.222986	218.336500	656.365819	-438.849391	231.466730	652.527582	-310.450766	74.190722	246.402585	-418.324349	18.576017	198.177864	-381.260702	224.818172	159.861710	-444.913681	176.496505	540.774415	-458.430567	171.594422	455.965103	-442.298040	124.775023	381.454604	-438.216790	200.817422	450.369416	-418.297453	317.052278	191.131250	-374.587122	-205.393989	955.425417	-264.538529	1.273759	82.419168	-461.231918	-15.255490	81.453003	-62.795046	
1254	6.2700	495.007913	1355.197212	-48.675036	542.278866	1357.642877	-324.941520	465.738446	1431.418871	-199.634457	462.576499	1241.389299	-208.737492	547.115152	1106.045896	58.148496	768.541157	937.300950	-33.158440	649.069788	1181.659729	-548.127150	788.702670	926.522040	-440.171748	-104.123463	1210.538176	-302.142285	139.371189	1207.511311	-468.898073	75.410084	1248.116323	-71.957656	166.123800	1140.466011	-433.906765	106.718770	1196.332000	-122.287532	-73.186049	1290.839696	-252.318421	-59.705132	1273.405089	-343.645719	57.745582	1140.050868	-45.948778	30.000651	1068.026313	-477.265043	196.237243	1101.562690	-36.407321	285.638375	1104.660890	-41.424969	363.477450	1064.225159	-45.795173	292.656942	1138.722537	-56.331274	466.847149	1042.186098	-54.358162	488.934905	1018.300966	-189.765569	416.162653	895.674043	-49.209019	397.809810	810.547035	-66.252202	340.299360	745.427945	-70.288110	424.493487	801.443193	-94.647228	261.175881	623.598141	-84.861618	202.066587	640.980387	-134.807692	424.266988	458.620612	-135.963185	350.700555	472.690306	-67.520792	98.167410	937.112424	-492.334493	151.801055	870.990041	-485.745004	186.026811	885.041840	-483.471450	165.631460	783.146131	-470.348148	222.170873	659.271008	-440.467222	237.081499	656.122319	-312.396797	67.208420	253.487314	-417.583591	10.753923	207.194041	-380.976397	215.562426	162.677763	-445.086179	177.337447	544.663850	-459.732292	170.296709	460.077367	-443.132451	121.550038	386.784729	-438.507458	199.502823	453.784605	-419.217056	308.966226	190.875157	-375.007875	-205.396120	955.388022	-264.523580	1.269273	82.437886	-461.214910	-15.252921	81.434552	-62.785650	
